<?xml version="1.0" encoding="UTF-8" standalone="no"?>
<!-- Created with Inkscape (http://www.inkscape.org/) -->

<svg
   width="1280mm"
   height="1256.3081mm"
   viewBox="0 0 1280 1256.3081"
   version="1.1"
   id="svg1"
   xmlns="http://www.w3.org/2000/svg"
   xmlns:svg="http://www.w3.org/2000/svg">
  <defs
     id="defs1" />
  <g
     id="layer1"
     transform="translate(-2098.9397,-701.93963)">
    <g
       id="g1">
      <path
         id="path60-8"
         style="baseline-shift:baseline;display:inline;overflow:visible;vector-effect:none;fill:#c59d5f;fill-opacity:1;stroke-width:11.2945;enable-background:accumulate;stop-color:#000000"
         d="m 2098.9397,701.93963 v 955.54527 h 1018.873 261.127 V 701.93963 Z m 49.8229,49.57865 h 1180.3545 v 856.41632 h -211.3044 -969.0501 z m 709.6996,45.47023 c 0,11.64401 0,11.86607 0,21.34207 25.2861,0.56222 29.6681,2.06636 40.7497,7.53578 9.576,5.64506 16.1866,12.60195 21.5237,23.941 4.7272,10.72201 5.7885,21.45918 3.8408,32.64578 -17.103,82.45806 -23.463,107.21767 -49.4252,209.93606 -30.828,123.4674 -52.1311,194.4593 -86.5825,314.8589 -9.8632,34.4715 -22.7602,81.5335 -39.7497,100.5645 -13.4423,14.5386 -17.1777,19.4718 -37.6346,27.8508 -15.8572,5.1823 -31.9026,5.4478 -50.469,5.6576 0,11.0058 0,12.0607 0,21.3363 l 175.8664,-0.022 c 184.3479,0.3094 118.2075,-0.146 221.358,0.022 103.1517,0.1693 135.1427,-22.832 164.8244,-50.3221 45.8236,-47.9917 57.3041,-111.9385 60.8192,-148.7416 l -9.9413,-0.2558 c -6.4339,31.726 -9.088,41.4572 -17.6027,59.9916 -7.103,16.879 -15.4809,30.8954 -25.4163,43.9552 -10.6535,14.2589 -17.9831,19.9877 -32.1806,31.5505 -21.1988,14.6227 -28.0629,17.9965 -54.8443,26.296 -20.5608,5.1739 -35.0129,6.1619 -62.3181,6.957 0,0 -29.7845,1.101 -63.3395,0.9366 -33.5554,-0.1645 -85.5951,-1.0607 -85.5951,-1.0607 -8.9953,-0.01 -17.0039,-0.7423 -31.3123,-2.0145 -59.0729,-6.8062 -64.9741,-54.468 -60.258,-74.978 l 8.9538,-45.1071 c 44.5849,-180.9097 49.4256,-199.3414 72.6061,-288.8749 27.0232,-104.3731 60.38,-212.87937 81.6291,-251.22432 13.9402,-25.15681 33.2711,-35.65887 37.4286,-37.83232 15.7227,-8.21924 30.5161,-11.35475 61.8195,-13.97644 24.2558,-1.79255 36.2461,-1.86149 72.9631,-2.61589 0,-9.07763 0,-10.02454 0,-18.35162 -131.4919,-0.007 -201.5928,0.0111 -317.7132,0 z m -438.655,0.0876 c -103.1502,-0.16931 -135.1427,22.83782 -164.8229,50.32765 -45.8243,47.99163 -57.3037,111.93868 -60.8199,148.74167 l 9.942,0.25581 c 6.4324,-31.72596 9.0865,-41.45715 17.6023,-59.99156 7.1038,-16.87871 15.4799,-30.89534 25.4155,-43.95514 10.6551,-14.25895 17.9835,-19.98769 32.181,-31.55053 21.1995,-14.62265 28.0641,-17.99655 54.8444,-26.29598 20.5607,-5.17388 35.0129,-6.16767 62.3177,-6.96266 0,0 29.7852,-1.09589 63.3402,-0.9312 33.5547,0.16486 85.5944,1.06073 85.5944,1.06073 8.9968,0.007 16.9999,0.74235 31.3067,2.01449 59.0729,6.80622 64.9801,54.46794 60.2647,74.97791 l -8.955,45.10708 c -44.5837,180.90962 -49.4251,199.34162 -72.606,288.87512 -27.0228,104.373 -60.3786,212.8792 -81.6276,251.2242 -13.9417,25.1567 -33.273,35.6588 -37.4298,37.8322 -15.7227,8.2193 -30.5164,11.3549 -61.8187,13.9765 -24.2558,1.7926 -36.2468,1.8616 -72.9639,2.616 0,9.0776 0,10.0246 0,18.3515 131.4923,0.011 201.5936,-0.011 317.7129,0 0,-11.6439 0,-11.8717 0,-21.3477 -25.2847,-0.5622 -29.6685,-2.0607 -40.749,-7.5302 -9.5756,-5.645 -16.1873,-12.6074 -21.5237,-23.9466 -4.7275,-10.722 -5.7896,-21.459 -3.8418,-32.6458 17.1044,-82.4579 23.4633,-107.212 49.4259,-209.9304 30.8291,-123.4674 52.1318,-194.4592 86.5821,-314.85879 9.8636,-34.47152 22.7561,-81.53354 39.7449,-100.56455 13.4415,-14.53866 17.1828,-19.47182 37.639,-27.85072 15.8576,-5.18235 31.9033,-5.44788 50.4698,-5.65762 0,-11.00588 0,-12.0607 0,-21.33631 l -175.872,0.0222 c -184.3482,-0.30978 -118.2023,0.14638 -221.3532,-0.0222 z" />
      <g
         id="text3-7"
         style="font-size:90.4972px;line-height:1.25;font-family:'Times New Roman';-inkscape-font-specification:'Times New Roman, Normal';text-align:center;letter-spacing:0.565614px;text-anchor:middle;fill:#c59d5f;stroke:#c59d5f;stroke-width:1.1316"
         transform="scale(0.9974951,1.0025112)"
         aria-label="advokátska kancelária">
        <path
           style="font-family:'Felix Titling';-inkscape-font-specification:'Felix Titling, Normal'"
           d="m 2151.6499,1921.1588 h -19.0009 l -9.8539,24.6127 q -1.0163,2.6513 -1.0163,3.2699 0,1.4583 2.1652,1.4583 v 0.6186 h -9.6772 v -0.6186 q 1.9443,0 3.2699,-0.928 1.3256,-0.9721 2.9164,-4.9491 l 23.5964,-59.5655 h 1.1048 l 23.2429,57.5329 q 0,0.4419 1.7675,4.1979 1.8117,3.7118 5.4793,3.7118 v 0.6186 h -15.2007 v -0.6186 q 2.0769,0 2.0769,-1.635 0,-1.1047 -1.0164,-3.5351 -0.1767,-0.1767 -0.3093,-0.5744 -0.088,-0.4419 -0.1325,-0.4419 z m -18.3822,-1.8117 h 17.5868 l -8.7934,-22.1825 z m 46.8305,-32.655 v -0.6629 h 29.8711 q 11.4006,0 17.9846,1.8117 6.6282,1.7676 11.5331,5.6119 4.9049,3.8444 7.7771,9.854 2.8722,5.9654 2.8722,13.3448 0,7.1143 -3.0048,14.0076 -2.9606,6.8492 -8.0864,11.8424 -5.1258,4.9491 -10.8261,6.805 -5.6561,1.8117 -17.5427,1.8117 h -30.5781 v -0.6186 h 0.7954 q 2.3861,0 3.1373,-1.9001 0.7512,-1.9443 0.7512,-6.9818 v -47.4138 q 0,-5.3025 -0.9279,-6.4072 -0.8838,-1.1047 -3.756,-1.1047 z m 22.1824,0.707 h -9.9865 v 50.5069 q 0,4.7724 1.5908,7.1143 1.6349,2.2978 5.5235,3.3583 3.8885,1.0164 10.4726,1.0164 18.2938,0 25.6732,-9.3679 7.4236,-9.4121 7.4236,-20.5033 0,-13.0355 -10.1632,-22.5801 -10.1191,-9.5446 -30.534,-9.5446 z m 80.8554,64.7355 h -0.8396 l -23.1546,-57.3119 q -2.4745,-6.0538 -4.0653,-7.0701 -1.5907,-1.0605 -3.2699,-1.0605 v -0.6629 h 15.024 v 0.6629 q -1.9885,-0.1326 -1.9885,1.5465 0,0.6629 0.2651,1.4141 l 20.194,50.1534 20.0614,-50.1093 q 0.3977,-1.0163 0.3977,-1.6349 0,-1.5024 -2.342,-1.3698 v -0.6629 h 9.7656 v 0.6629 q -1.0164,0 -2.1652,0.3093 -1.1047,0.2651 -2.2978,2.2536 -1.1931,1.9884 -1.2373,2.121 z m 67.0687,-67.0775 q 13.6983,0 22.4033,8.3515 8.7051,8.3074 8.7051,20.7684 0,16.0403 -10.0749,26.999 -10.0749,10.9586 -26.7338,10.9586 -13.5216,0 -22.1382,-8.8376 -8.6167,-8.8376 -8.6167,-21.2103 0,-8.3515 4.1537,-17.145 4.1536,-8.7934 12.5052,-14.3169 8.3515,-5.5677 19.7963,-5.5677 z m -0.2652,63.6308 q 6.7166,0 13.2565,-3.5792 6.5398,-3.6234 10.2958,-9.9423 3.756,-6.3189 3.756,-12.9913 0,-9.4563 -5.0817,-17.1892 -5.0374,-7.7329 -13.1238,-12.1075 -8.0423,-4.3746 -14.8914,-4.3746 -9.6772,0 -17.5869,7.291 -7.8654,7.291 -7.8654,18.1171 0,13.8309 9.633,24.3035 9.633,10.4725 21.6079,10.4725 z m 37.5511,-62.6587 h 18.6474 v 0.6629 q -3.049,-0.1326 -4.2863,0.9279 -1.2372,1.0163 -1.2372,5.391 v 24.9662 l 38.6645,-29.0316 q 1.1489,-0.7953 1.1489,-1.4582 0,-0.7953 -2.6071,-0.7953 v -0.6629 h 14.0518 v 0.6629 q -5.3025,0.1325 -10.34,3.8885 l -33.6713,25.143 33.5829,25.5407 q 0.044,0.044 0.1326,0.088 0.088,0.044 0.1326,0.1326 0.088,0.044 0.1767,0.044 6.6282,4.949 10.2517,6.9817 3.6676,1.9885 6.8491,1.9885 v 0.6186 h -22.1382 v -0.6186 q 2.9606,0 2.9606,-0.6629 0,-0.5744 -2.4304,-2.4303 l -36.7644,-27.9711 v 24.1709 q 0,4.2421 0.5744,5.2142 0.6186,0.9721 1.5908,1.414 1.0163,0.3977 3.2699,0.2652 v 0.6186 h -18.559 v -0.6186 q 3.7118,0.1767 4.6397,-1.1047 0.9722,-1.3257 0.9722,-5.5236 v -50.5069 q 0,-4.3305 -0.9722,-5.6119 -0.9279,-1.2815 -4.6397,-1.0605 z m 110.2846,35.1296 h -19.0009 l -9.8539,24.6127 q -1.0163,2.6513 -1.0163,3.2699 0,1.4583 2.1652,1.4583 v 0.6186 h -9.6772 v -0.6186 q 1.9443,0 3.2699,-0.928 1.3256,-0.9721 2.9164,-4.9491 l 23.5965,-59.5655 h 1.1047 l 23.2429,57.5329 q 0,0.4419 1.7675,4.1979 1.8117,3.7118 5.4793,3.7118 v 0.6186 h -15.2007 v -0.6186 q 2.0769,0 2.0769,-1.635 0,-1.1047 -1.0164,-3.5351 -0.1767,-0.1767 -0.3093,-0.5744 -0.088,-0.4419 -0.1325,-0.4419 z m -18.3822,-1.8117 h 17.5868 l -8.7934,-22.1825 z m 12.2401,-51.4792 h 7.9538 l -13.389,13.6542 h -2.0768 z m 85.8928,15.9077 -3.0932,7.8655 h -0.6186 q 0.1767,-0.707 0.1767,-1.9001 0,-1.0163 -0.7512,-1.2814 -0.707,-0.3093 -2.2978,-0.3093 h -17.0124 v 55.7211 q 0,3.4467 0.5303,4.7282 0.5744,1.2372 1.5024,1.5907 0.9721,0.3094 3.0932,0.3094 v 0.6186 h -17.6311 v -0.6186 q 3.3141,-0.221 4.1537,-1.2815 0.8396,-1.0605 0.8396,-4.4188 v -56.6491 h -16.3054 q -2.4746,0 -3.2258,0.3093 -0.7512,0.2651 -0.7512,1.414 0,0.5744 0.3535,1.7675 h -0.6186 l -3.0932,-7.8655 h 0.6187 q 0.7954,1.5908 1.5465,1.9443 0.7954,0.3093 3.3583,0.3093 h 43.2602 q 2.5629,0 3.6676,-0.3093 1.1489,-0.3535 1.6791,-1.9443 z m 35.2091,3.0932 3.0931,8.1306 -0.5302,0.088 q 0,-0.044 -2.4746,-2.6071 -2.4303,-2.5629 -5.6119,-3.9327 -3.1373,-1.4141 -7.1142,-1.4141 -6.6724,0 -10.6052,3.8444 -3.8885,3.8002 -3.8885,9.1911 0,3.5793 1.8117,6.2747 1.8559,2.6513 7.6887,4.9491 10.0307,3.3583 13.6983,5.0816 3.7118,1.6792 7.1143,5.7445 3.4467,4.0653 3.4467,10.4284 0,2.6513 -0.6187,5.0816 -0.6186,2.3862 -1.9884,4.6397 -1.3699,2.2094 -3.3141,4.0653 -1.9001,1.8118 -3.8886,2.7839 -1.9884,0.9279 -6.2747,1.414 -4.2862,0.4861 -5.6561,0.4861 h -17.3659 v -18.9125 h 0.6628 q 0.088,9.412 4.4188,13.1238 4.3305,3.7118 13.4774,3.7118 8.3074,0 12.5936,-3.9327 4.3304,-3.9327 4.3304,-9.4562 0,-3.3583 -1.5023,-5.7003 -1.5024,-2.3862 -4.1979,-4.1537 -2.6955,-1.8117 -10.2075,-4.3746 -7.4678,-2.6071 -10.5167,-4.5514 -3.0048,-1.9884 -5.0375,-5.9212 -2.0326,-3.9769 -2.0326,-8.0864 0,-7.5562 5.17,-12.682 5.2142,-5.1258 13.6541,-5.1258 3.2699,0 7.0701,0.7512 3.8002,0.7512 4.2421,0.9721 0.1767,0.088 0.3535,0.088 z m 11.7893,-0.8396 h 18.6474 v 0.6629 q -3.049,-0.1326 -4.2862,0.9279 -1.2373,1.0163 -1.2373,5.391 v 24.9662 l 38.6646,-29.0316 q 1.1489,-0.7953 1.1489,-1.4582 0,-0.7953 -2.6071,-0.7953 v -0.6629 h 14.0518 v 0.6629 q -5.3026,0.1325 -10.34,3.8885 l -33.6714,25.143 33.583,25.5407 q 0.044,0.044 0.1326,0.088 0.088,0.044 0.1325,0.1326 0.088,0.044 0.1768,0.044 6.6282,4.949 10.2516,6.9817 3.6676,1.9885 6.8492,1.9885 v 0.6186 h -22.1383 v -0.6186 q 2.9606,0 2.9606,-0.6629 0,-0.5744 -2.4303,-2.4303 l -36.7645,-27.9711 v 24.1709 q 0,4.2421 0.5744,5.2142 0.6187,0.9721 1.5908,1.414 1.0163,0.3977 3.2699,0.2652 v 0.6186 h -18.559 v -0.6186 q 3.7118,0.1767 4.6398,-1.1047 0.9721,-1.3257 0.9721,-5.5236 v -50.5069 q 0,-4.3305 -0.9721,-5.6119 -0.928,-1.2815 -4.6398,-1.0605 z m 110.2847,35.1296 h -19.0009 l -9.854,24.6127 q -1.0163,2.6513 -1.0163,3.2699 0,1.4583 2.1652,1.4583 v 0.6186 h -9.6772 v -0.6186 q 1.9443,0 3.27,-0.928 1.3256,-0.9721 2.9164,-4.9491 l 23.5964,-59.5655 h 1.1047 l 23.2429,57.5329 q 0,0.4419 1.7676,4.1979 1.8117,3.7118 5.4793,3.7118 v 0.6186 h -15.2007 v -0.6186 q 2.0768,0 2.0768,-1.635 0,-1.1047 -1.0163,-3.5351 -0.1768,-0.1767 -0.3093,-0.5744 -0.088,-0.4419 -0.1326,-0.4419 z m -18.3823,-1.8117 h 17.5869 l -8.7935,-22.1825 z"
           id="path7" />
        <path
           style="font-family:'Felix Titling';-inkscape-font-specification:'Felix Titling, Normal'"
           d="m 2785.6076,1886.0292 h 18.6474 v 0.6629 q -3.049,-0.1326 -4.2863,0.9279 -1.2372,1.0163 -1.2372,5.391 v 24.9662 l 38.6645,-29.0316 q 1.1489,-0.7953 1.1489,-1.4582 0,-0.7953 -2.6071,-0.7953 v -0.6629 h 14.0518 v 0.6629 q -5.3025,0.1325 -10.34,3.8885 l -33.6713,25.143 33.5829,25.5407 q 0.044,0.044 0.1326,0.088 0.088,0.044 0.1326,0.1326 0.088,0.044 0.1767,0.044 6.6282,4.949 10.2517,6.9817 3.6676,1.9885 6.8491,1.9885 v 0.6186 h -22.1382 v -0.6186 q 2.9606,0 2.9606,-0.6629 0,-0.5744 -2.4304,-2.4303 l -36.7644,-27.9711 v 24.1709 q 0,4.2421 0.5744,5.2142 0.6186,0.9721 1.5908,1.414 1.0163,0.3977 3.2699,0.2652 v 0.6186 h -18.559 v -0.6186 q 3.7118,0.1767 4.6397,-1.1047 0.9722,-1.3257 0.9722,-5.5236 v -50.5069 q 0,-4.3305 -0.9722,-5.6119 -0.9279,-1.2815 -4.6397,-1.0605 z m 110.2847,35.1296 h -19.0009 l -9.854,24.6127 q -1.0163,2.6513 -1.0163,3.2699 0,1.4583 2.1652,1.4583 v 0.6186 h -9.6772 v -0.6186 q 1.9443,0 3.27,-0.928 1.3256,-0.9721 2.9164,-4.9491 l 23.5964,-59.5655 h 1.1047 l 23.243,57.5329 q 0,0.4419 1.7675,4.1979 1.8117,3.7118 5.4793,3.7118 v 0.6186 h -15.2007 v -0.6186 q 2.0768,0 2.0768,-1.635 0,-1.1047 -1.0163,-3.5351 -0.1767,-0.1767 -0.3093,-0.5744 -0.088,-0.4419 -0.1326,-0.4419 z m -18.3823,-1.8117 h 17.5869 l -8.7934,-22.1825 z m 100.2981,-33.3179 h 12.5936 v 0.6629 q -2.8722,0.088 -3.9769,1.2372 -1.1047,1.1047 -1.1047,4.7281 v 59.2563 l -51.921,-55.2793 v 48.165 q 0,2.2978 0.3535,3.4025 0.3535,1.1047 1.0163,1.5024 0.6628,0.3977 3.3141,0.7954 v 0.6186 h -12.5052 v -0.6186 q 3.3583,0 4.1537,-1.1931 0.8396,-1.1931 0.8396,-5.7003 v -44.0555 q 0,-5.7886 -1.635,-9.4563 -1.5908,-3.6676 -7.4236,-3.4024 v -0.6629 h 12.2401 l 48.7836,51.9652 v -45.9556 q 0,-3.7118 -1.3256,-4.5072 -1.3256,-0.8395 -3.4025,-0.8395 z m 75.7737,3.27 2.4304,6.8933 h -0.6186 q -9.4563,-9.4121 -22.2708,-9.4121 -13.3007,0 -21.5196,7.9097 -8.1748,7.9097 -8.1748,19.1334 0,6.9376 3.6234,15.9519 3.6676,9.0144 11.5331,14.8472 7.8655,5.7887 19.045,5.7887 7.3353,0 14.3612,-2.342 7.0701,-2.3861 10.5167,-6.3631 l 0.5745,0.1768 -4.5514,6.9817 q -11.047,2.3862 -14.3611,2.828 -3.2699,0.4419 -8.7934,0.4419 -20.4591,0 -29.2967,-9.4562 -8.7935,-9.5005 -8.7935,-22.7127 0,-8.926 4.5072,-17.145 4.5514,-8.2632 13.0797,-12.9913 8.5283,-4.7723 19.4869,-4.7723 5.4793,0 9.4563,1.0163 4.0211,0.9722 6.6724,2.0327 l 2.9164,1.1047 q 0.1326,0.044 0.1767,0.088 z m 14.3082,-2.5188 v -0.7512 h 40.9181 v 8.9702 h -0.6628 q -1.3256,-4.9932 -2.2536,-5.877 -0.8837,-0.8838 -4.4188,-0.8838 h -21.4754 v 29.2084 h 19.9288 q 2.9606,0 3.756,-0.5303 0.7954,-0.5744 0.8396,-1.635 h 0.6628 v 6.1422 h -0.6628 q -0.2209,-1.2815 -1.0605,-1.7233 -0.7954,-0.4419 -3.0048,-0.4419 h -20.4591 v 20.1056 q 0,4.5513 0.8396,6.584 0.8396,1.9884 2.6513,2.5187 1.8559,0.4861 5.5677,0.4861 h 11.4889 q 5.4793,0 6.9817,-0.3535 1.5466,-0.3977 2.6071,-1.5024 1.0605,-1.1489 1.6349,-4.9491 h 0.6187 v 8.9702 H 3067.89 v -0.6186 q 2.2536,-0.1326 3.4025,-0.8396 1.193,-0.7512 1.193,-3.8002 v -52.5838 q 0,-3.5793 -0.6186,-5.0375 -0.6186,-1.4582 -3.9769,-1.4582 z m 47.184,64.3379 v -0.6186 q 3.049,0 3.9327,-1.1489 0.928,-1.1489 0.928,-3.9328 v -53.2908 q 0,-2.828 -0.707,-4.0653 -0.707,-1.2815 -4.2421,-1.3698 v -0.6629 h 17.4543 v 0.6629 q -2.4303,0 -3.4025,0.6186 -0.9721,0.6186 -1.2814,1.4582 -0.3093,0.8396 -0.3093,3.8002 v 45.6905 q 0,5.877 2.828,8.3073 2.828,2.3862 9.6772,2.3862 h 7.9539 q 5.7444,0 8.3957,-2.8281 2.6955,-2.828 3.0048,-10.6493 h 0.6186 v 15.6426 z m 86.3347,-29.9595 h -19.0009 l -9.8539,24.6127 q -1.0164,2.6513 -1.0164,3.2699 0,1.4583 2.1653,1.4583 v 0.6186 h -9.6772 v -0.6186 q 1.9442,0 3.2699,-0.928 1.3256,-0.9721 2.9164,-4.9491 l 23.5964,-59.5655 h 1.1047 l 23.243,57.5329 q 0,0.4419 1.7675,4.1979 1.8117,3.7118 5.4793,3.7118 v 0.6186 h -15.2007 v -0.6186 q 2.0769,0 2.0769,-1.635 0,-1.1047 -1.0164,-3.5351 -0.1767,-0.1767 -0.3093,-0.5744 -0.088,-0.4419 -0.1325,-0.4419 z m -18.3823,-1.8117 h 17.5869 l -8.7934,-22.1825 z m 12.2401,-51.4792 h 7.9539 l -13.389,13.6542 h -2.0768 z m 34.6789,18.8242 v -0.6629 h 18.4706 q 7.0259,0 10.1633,0.3094 3.1373,0.3093 6.4072,2.0768 3.3142,1.7233 4.9933,4.7281 1.6791,2.9606 1.6791,7.2911 0,4.949 -3.0047,9.4562 -2.9606,4.463 -8.3958,7.5562 l 4.5956,7.0701 q 1.5024,2.6512 7.9538,11.6214 6.4957,8.9702 10.0307,10.9587 3.5351,1.9442 6.8492,1.9442 3.2699,0 7.512,-2.5187 l 0.2651,0.8838 q -5.3026,4.3304 -13.7867,4.3304 -5.6561,0 -9.7214,-3.3141 -4.0653,-3.3583 -14.1402,-18.3822 -0.088,-0.088 -0.088,-0.1768 l -6.5399,-10.0749 -5.7886,0.1768 h -5.2584 v 24.9221 q 0,3.0048 0.7954,4.3304 0.7954,1.2815 3.8444,1.2815 v 0.6186 h -16.8357 v -0.6186 q 3.1373,-0.1326 3.8885,-1.3257 0.7954,-1.1931 0.7954,-4.8607 v -51.7442 q 0,-2.5187 -0.6628,-4.1537 -0.6628,-1.6792 -4.0211,-1.7233 z m 12.1959,1.0605 v 30.5339 h 6.805 q 8.0422,0 11.9308,-3.8001 3.8885,-3.8002 3.8885,-9.9865 0,-6.0096 -3.8444,-11.3564 -3.8001,-5.3909 -13.4331,-5.3909 z m 76.9668,-1.7234 v 0.6629 q -1.2815,-0.1326 -2.8722,0.3976 -1.5466,0.5303 -1.8559,1.5466 -0.2652,1.0164 -0.2652,4.8165 v 49.9768 q 0,4.0653 0.3093,4.9932 0.3535,0.8838 1.2815,1.5024 0.9721,0.5745 3.4025,0.5745 v 0.6186 h -17.3659 v -0.6186 q 3.2699,0 4.0653,-1.2373 0.7954,-1.2815 0.7954,-5.7445 v -49.4906 q 0,-4.6398 -0.8838,-6.0538 -0.8838,-1.4582 -3.9769,-1.2814 v -0.6629 z m 41.4396,35.1296 h -19.0009 l -9.8539,24.6127 q -1.0163,2.6513 -1.0163,3.2699 0,1.4583 2.1652,1.4583 v 0.6186 h -9.6772 v -0.6186 q 1.9443,0 3.2699,-0.928 1.3257,-0.9721 2.9164,-4.9491 l 23.5965,-59.5655 h 1.1047 l 23.2429,57.5329 q 0,0.4419 1.7675,4.1979 1.8117,3.7118 5.4794,3.7118 v 0.6186 h -15.2007 v -0.6186 q 2.0768,0 2.0768,-1.635 0,-1.1047 -1.0163,-3.5351 -0.1768,-0.1767 -0.3093,-0.5744 -0.088,-0.4419 -0.1326,-0.4419 z m -18.3822,-1.8117 h 17.5868 l -8.7934,-22.1825 z"
           id="path8" />
      </g>
      <path
         d="m 2109.3557,1842.397 v -1.2408 q 6.1151,0 7.8876,-2.3042 1.8612,-2.3043 1.8612,-7.8877 v -106.8824 q 0,-5.672 -1.4181,-8.1535 -1.418,-2.5701 -8.508,-2.7474 v -1.3294 h 35.0071 v 1.3294 q -4.8744,0 -6.8242,1.2408 -1.9498,1.2407 -2.5701,2.9246 -0.6204,1.6839 -0.6204,7.6218 v 91.6388 q 0,11.7871 5.672,16.6615 5.6721,4.7858 19.409,4.7858 h 15.9526 q 11.5213,0 16.8388,-5.672 5.4062,-5.672 6.0266,-21.3588 h 1.2407 v 31.3735 z m 223.0703,-60.0881 h -38.1089 l -19.7635,49.3644 q -2.0384,5.3175 -2.0384,6.5583 0,2.9246 4.3427,2.9246 v 1.2408 h -19.409 v -1.2408 q 3.8995,0 6.5583,-1.8611 2.6587,-1.9498 5.8492,-9.9261 l 47.3261,-119.4671 h 2.2156 l 46.617,115.3904 q 0,0.8862 3.545,8.4194 3.6337,7.4445 10.9896,7.4445 v 1.2408 h -30.4872 v -1.2408 q 4.1654,0 4.1654,-3.2791 0,-2.2157 -2.0384,-7.0901 -0.3545,-0.3545 -0.6204,-1.1521 -0.1772,-0.8863 -0.2658,-0.8863 z m -36.8682,-3.6337 h 35.273 l -17.6365,-44.49 z m 24.5493,-103.2487 h 15.9526 l -26.8535,27.3853 h -4.1654 z m 226.5268,36.4251 h 25.2582 v 1.3294 q -5.7606,0.1773 -7.9763,2.4815 -2.2156,2.2157 -2.2156,9.4829 v 118.8468 l -104.135,-110.8705 v 96.6018 q 0,4.6086 0.709,6.8242 0.709,2.2156 2.0384,3.0133 1.3294,0.7976 6.6469,1.5952 v 1.2408 h -25.081 v -1.2408 q 6.7356,0 8.3308,-2.3929 1.6839,-2.3929 1.6839,-11.4327 v -88.3596 q 0,-11.6099 -3.2791,-18.9658 -3.1906,-7.3559 -14.8891,-6.8242 v -1.3294 h 24.5492 l 97.8426,104.2236 v -92.1705 q 0,-7.4445 -2.6588,-9.0398 -2.6587,-1.6839 -6.8241,-1.6839 z m 165.7297,0 h 19.5862 v 1.3294 q -3.7223,0.2659 -6.1152,1.7725 -2.3928,1.5067 -5.4947,6.2038 l -31.9052,48.3009 v 59.9108 q 0,7.2673 1.8611,9.5716 1.8612,2.2156 8.0649,2.2156 v 1.2408 h -34.8298 v -1.2408 q 10.0147,0.6204 10.0147,-7.8877 l -0.1773,-3.7222 v -55.2137 l -31.9938,-52.998 q -5.0516,-8.4195 -11.2554,-8.1536 v -1.3294 h 30.8417 v 1.3294 q -4.3427,0 -4.3427,3.2792 0,1.6838 2.2157,5.2289 l 26.3217,43.4264 28.8033,-43.7809 q 0.7977,-0.7091 1.7725,-2.5702 0.9749,-1.9497 0.9749,-2.6588 0,-2.9246 -3.8109,-2.9246 h -0.5317 z m 112.8202,0 v 1.3294 q -2.5701,-0.2659 -5.7606,0.7976 -3.1019,1.0635 -3.7223,3.1019 -0.5318,2.0384 -0.5318,9.6602 v 100.2354 q 0,8.1536 0.6204,10.0147 0.709,1.7725 2.5701,3.0133 1.9498,1.1521 6.8242,1.1521 v 1.2408 h -34.8298 v -1.2408 q 6.5583,0 8.1535,-2.4815 1.5953,-2.5701 1.5953,-11.5213 v -99.2606 q 0,-9.3056 -1.7725,-12.1417 -1.7725,-2.9246 -7.9763,-2.5701 v -1.3294 z m 136.3061,-1.9497 q 27.4739,0 44.9331,16.7502 17.4592,16.6616 17.4592,41.654 0,32.171 -20.2066,54.1501 -20.2066,21.9792 -53.6184,21.9792 -27.1194,0 -44.4014,-17.7251 -17.282,-17.7251 -17.282,-42.5403 0,-16.7502 8.3308,-34.3867 8.3308,-17.6364 25.081,-28.7146 16.7503,-11.1668 39.7043,-11.1668 z m -0.5318,127.6207 q 13.4711,0 26.5876,-7.1787 13.1166,-7.2673 20.6498,-19.9407 7.5332,-12.6735 7.5332,-26.0559 0,-18.9659 -10.192,-34.4753 -10.1033,-15.5095 -26.3217,-24.2834 -16.1299,-8.7739 -29.8668,-8.7739 -19.409,0 -35.273,14.6232 -15.7753,14.6232 -15.7753,36.3364 0,27.7398 19.3203,48.744 19.3204,21.0043 43.3379,21.0043 z m 179.2008,6.9128 h -1.6839 l -46.4398,-114.9473 q -4.963,-12.1417 -8.1535,-14.1801 -3.1905,-2.127 -6.5583,-2.127 v -1.3294 h 30.1327 v 1.3294 q -3.9882,-0.2659 -3.9882,3.1019 0,1.3294 0.5318,2.836 l 40.5018,100.5899 40.236,-100.5013 q 0.7976,-2.0383 0.7976,-3.2791 0,-3.0133 -4.6971,-2.7474 v -1.3294 h 19.5862 v 1.3294 q -2.0384,0 -4.3427,0.6204 -2.2156,0.5317 -4.6085,4.5199 -2.3929,3.9881 -2.4815,4.254 z m 188.0633,-62.1265 h -38.109 l -19.7635,49.3644 q -2.0383,5.3175 -2.0383,6.5583 0,2.9246 4.3426,2.9246 v 1.2408 h -19.409 v -1.2408 q 3.8995,0 6.5583,-1.8611 2.6588,-1.9498 5.8493,-9.9261 l 47.326,-119.4671 h 2.2156 l 46.617,115.3904 q 0,0.8862 3.5451,8.4194 3.6336,7.4445 10.9895,7.4445 v 1.2408 h -30.4871 v -1.2408 q 4.1654,0 4.1654,-3.2791 0,-2.2157 -2.0384,-7.0901 -0.3545,-0.3545 -0.6204,-1.1521 -0.1773,-0.8863 -0.2659,-0.8863 z m -36.8682,-3.6337 h 35.2729 l -17.6364,-44.49 z m 24.5492,-103.2487 h 15.9526 l -26.8535,27.3853 h -4.1654 z"
         id="text1-2"
         style="font-size:181.505px;line-height:1.25;font-family:'Felix Titling';-inkscape-font-specification:'Felix Titling, Normal';text-align:center;letter-spacing:51.0483px;text-anchor:middle;fill:#c59d5f;stroke:#c59d5f;stroke-width:1.13441"
         aria-label="LÁNYIOVÁ" />
    </g>
  </g>
</svg>
